# xmcd
#
# Track frame offsets: 
#        150
#        20584
#        41244
#        60602
#        75906
#        96241
#        113534
#        138922
#        160142
#        176091
#        193643
#        210451
#
# Disc length: 3091 seconds
#
# Revision: 0
# Processed by: cddbd v1.5.2PL0 Copyright (c) Steve Scherf et al.
# Submitted via: ExactAudioCopyFreeDBPlugin 1.0
#
DISCID=980c110c
DTITLE=范宗沛 - Old School Love Hits
DYEAR=1900
DGENRE=
TTITLE0=我願意
TTITLE1=秋意濃
TTITLE2=如果雲知道
TTITLE3=檸檬樹
TTITLE4=鼓聲若響
TTITLE5=把悲傷留給自己
TTITLE6=聽海
TTITLE7=我是不是你最疼愛的人
TTITLE8=老情歌
TTITLE9=白天不懂夜的黑
TTITLE10=是否
TTITLE11=讓我歡喜讓我憂
EXTD=
EXTT0=
EXTT1=
EXTT2=
EXTT3=
EXTT4=
EXTT5=
EXTT6=
EXTT7=
EXTT8=
EXTT9=
EXTT10=
EXTT11=
PLAYORDER=
